<?xml version="1.0" encoding="utf-8"?>
<!-- Generator: Adobe Illustrator 26.0.1, SVG Export Plug-In . SVG Version: 6.00 Build 0)  -->
<svg version="1.1" id="Layer_1" focusable="false" xmlns="http://www.w3.org/2000/svg" xmlns:xlink="http://www.w3.org/1999/xlink"
	 x="0px" y="0px" viewBox="0 0 512 512" style="enable-background:new 0 0 512 512;" xml:space="preserve">
<style type="text/css">
	.st0{fill:#A5FAE6;}
</style>
<path d="M256,8C119,8,8,119,8,256s111,248,248,248s248-111,248-248S393,8,256,8z M348.5,321L348.5,321l-20,25
	c-5.5,6.9-15.6,8-22.5,2.5c0,0,0,0,0,0l0,0l-67-49.7c-9.5-7.6-15-19.1-15-31.2V112c0-8.8,7.2-16,16-16h32c8.8,0,16,7.2,16,16v144
	l58,42.5C352.9,304,354,314.1,348.5,321C348.5,321,348.5,321,348.5,321z"/>
<g>
	<path class="st0" d="M256.5,492c-63.1,0-122.3-24.5-166.9-69.1S20.5,319.1,20.5,256c0-63.1,24.5-122.3,69.1-166.9
		S193.4,20,256.5,20c63.1,0,122.3,24.5,166.9,69.1s69.1,103.8,69.1,166.9c0,63.1-24.5,122.3-69.1,166.9S319.6,492,256.5,492z
		 M299.2,358c4.9,3.9,11,6,17.3,6c8.6,0,16.5-3.8,21.9-10.5l20.1-25.2c9.5-12.1,7.5-29.6-4.5-39.2l-0.2-0.2l-53.3-39.1V112
		c0-15.4-12.6-28-28-28h-32c-15.4,0-28,12.6-28,28v155.5c0,15.9,7.1,30.7,19.5,40.6l0.2,0.1L299.2,358z"/>
	<path d="M256.5,32c30.3,0,59.6,5.9,87.2,17.6c26.7,11.3,50.6,27.4,71.2,48s36.7,44.5,48,71.2c11.7,27.6,17.6,56.9,17.6,87.2
		s-5.9,59.6-17.6,87.2c-11.3,26.7-27.4,50.6-48,71.2s-44.5,36.7-71.2,48c-27.6,11.7-56.9,17.6-87.2,17.6s-59.6-5.9-87.2-17.6
		c-26.7-11.3-50.6-27.4-71.2-48s-36.7-44.5-48-71.2c-11.7-27.6-17.6-56.9-17.6-87.2s5.9-59.6,17.6-87.2c11.3-26.7,27.4-50.6,48-71.2
		s44.5-36.7,71.2-48C196.9,37.9,226.2,32,256.5,32 M291.9,367.6c7,5.4,15.7,8.4,24.6,8.4c12.2,0,23.6-5.5,31.2-15l20-25l0,0l0,0
		c6.7-8.3,9.7-18.8,8.5-29.4c-1.2-10.6-6.4-20.1-14.8-26.8l-0.4-0.3l-0.4-0.3l-48.2-35.3V112c0-22.1-17.9-40-40-40h-32
		c-22.1,0-40,17.9-40,40v155.5c0,19.5,8.7,37.8,24,50l0.3,0.3l0.4,0.3L291.9,367.6 M256.5,8c-137,0-248,111-248,248s111,248,248,248
		s248-111,248-248S393.5,8,256.5,8L256.5,8z M316.5,352c-3.5,0-7-1.1-10-3.5c0,0,0,0,0,0l-67-49.7c-9.5-7.6-15-19.1-15-31.2V112
		c0-8.8,7.2-16,16-16h32c8.8,0,16,7.2,16,16v144l58,42.5c6.9,5.5,8,15.6,2.5,22.5c0,0,0,0,0,0l-20,25C325.8,350,321.2,352,316.5,352
		L316.5,352z"/>
</g>
</svg>
