<?xml version="1.0" encoding="utf-8"?>
<!-- Generator: Adobe Illustrator 26.0.1, SVG Export Plug-In . SVG Version: 6.00 Build 0)  -->
<svg version="1.1" id="Layer_1" focusable="false" xmlns="http://www.w3.org/2000/svg" xmlns:xlink="http://www.w3.org/1999/xlink"
	 x="0px" y="0px" viewBox="0 0 640 512" style="enable-background:new 0 0 640 512;" xml:space="preserve">
<style type="text/css">
	.st0{fill:#A5FAE6;}
</style>
<path d="M488,192H336v56c0,39.7-32.3,72-72,72s-72-32.3-72-72V126.4l-64.9,39C107.8,176.9,96,197.8,96,220.2v47.3l-80,46.2
	c-15.3,8.8-20.6,28.4-11.7,43.7l80,138.6c8.8,15.3,28.4,20.5,43.7,11.7L231.4,448H368c35.3,0,64-28.7,64-64h16c17.7,0,32-14.3,32-32
	v-64h8c13.3,0,24-10.7,24-24v-48C512,202.7,501.3,192,488,192z M635.7,154.6L555.7,16C546.9,0.7,527.3-4.5,512,4.3L408.6,64H306.4
	c-12,0-23.7,3.4-33.9,9.7L239,94.6c-9.4,5.8-15,16.1-15,27.1V248c0,22.1,17.9,40,40,40s40-17.9,40-40v-88h184c30.9,0,56,25.1,56,56
	v28.5l80-46.2C639.3,189.4,644.5,169.9,635.7,154.6z"/>
<g>
	<path class="st0" d="M112.5,500c-7.1,0-13.8-3.8-17.3-10l-80-138.6c-2.7-4.6-3.4-10-2-15.2c1.4-5.2,4.7-9.5,9.3-12.1l86-49.7v-54.2
		c0-18.2,9.7-35.2,25.2-44.5l46.8-28.1V248c0,46.3,37.7,84,84,84s84-37.7,84-84v-44h140c6.6,0,12,5.4,12,12v48c0,6.6-5.4,12-12,12
		h-20v76c0,11-9,20-20,20h-28v12c0,28.7-23.3,52-52,52H228.7l-106.2,61.3C119.5,499.1,116,500,112.5,500z M264.5,276
		c-15.4,0-28-12.6-28-28V121.7c0-7,3.5-13.3,9.3-16.9l33.6-20.9c8.3-5.1,17.9-7.9,27.5-7.9h105.4l106.2-61.3c3-1.7,6.5-2.7,10-2.7
		c7.1,0,13.8,3.8,17.3,10l80,138.6c5.5,9.5,2.2,21.8-7.3,27.3l-62,35.8V216c0-37.5-30.5-68-68-68h-196v100
		C292.5,263.4,280,276,264.5,276z"/>
	<path d="M528.5,24c2.9,0,5.5,1.5,6.9,4l80,138.6c2.2,3.9,0.9,8.7-2.9,11l-44.9,25.9c-6-38.2-39.2-67.5-79-67.5h-184h-24v24v88
		c0,8.8-7.2,16-16,16c-8.8,0-16-7.2-16-16V121.7c0-2.7,1.4-5.3,3.6-6.7l0.1,0l0.1,0l33.4-20.9c6.5-4,13.8-6.1,21.3-6.1h102.2h6.4
		l5.6-3.2l103.4-59.7C525.7,24.4,527.1,24,528.5,24 M168.5,168.8V248c0,52.9,43.1,96,96,96s96-43.1,96-96v-32h128v48h-8h-24v24v64
		c0,4.4-3.6,8-8,8h-16h-24v24c0,22.1-17.9,40-40,40H231.9h-6.4l-5.6,3.2l-103.4,59.7c-1.2,0.7-2.6,1.1-4,1.1c-2.9,0-5.5-1.5-6.9-4
		l-80-138.6l0,0l0,0c-1.4-2.3-1.2-4.5-0.8-6c0.3-1.2,1.2-3.4,3.8-4.9l80-46.2l12-6.9v-13.9v-47.3c0-14,7.4-27.1,19.4-34.2l0,0l0,0
		L168.5,168.8 M528.5,0c-5.4,0-10.9,1.4-16,4.3L409.1,64H306.9c-12,0-23.7,3.4-33.9,9.7l-33.5,20.9c-9.4,5.8-15,16.1-15,27.1V248
		c0,22.1,17.9,40,40,40s40-17.9,40-40v-88h184c30.9,0,56,25.1,56,56v28.5l80-46.2c15.3-8.9,20.5-28.4,11.7-43.7L556.2,16
		C550.3,5.7,539.6,0,528.5,0L528.5,0z M192.5,126.4l-64.9,39c-19.3,11.5-31.1,32.4-31.1,54.8v47.3l-80,46.2
		c-15.3,8.8-20.6,28.4-11.7,43.7l80,138.6c5.9,10.3,16.7,16,27.7,16c5.4,0,10.9-1.4,16-4.3L231.9,448h136.6c35.3,0,64-28.7,64-64h16
		c17.7,0,32-14.3,32-32v-64h8c13.3,0,24-10.7,24-24v-48c0-13.3-10.7-24-24-24h-152v56c0,39.7-32.3,72-72,72s-72-32.3-72-72V126.4
		L192.5,126.4z"/>
</g>
</svg>
