<?xml version="1.0" encoding="utf-8"?>
<!-- Generator: Adobe Illustrator 26.0.1, SVG Export Plug-In . SVG Version: 6.00 Build 0)  -->
<svg version="1.1" id="Layer_1" focusable="false" xmlns="http://www.w3.org/2000/svg" xmlns:xlink="http://www.w3.org/1999/xlink"
	 x="0px" y="0px" viewBox="0 0 640 512" style="enable-background:new 0 0 640 512;" xml:space="preserve">
<style type="text/css">
	.st0{fill:#A5FAE6;}
</style>
<g>
	<path class="st0" d="M384,500c-11,0-20-9-20-20V320c0-11,9-20,20-20h44v-92c0-37.5,30.5-68,68-68s68,30.5,68,68v92h44
		c11,0,20,9,20,20v160c0,11-9,20-20,20H384z M496,356c-24.3,0-44,19.7-44,44s19.7,44,44,44s44-19.7,44-44S520.3,356,496,356z
		 M496,164c-24.3,0-44,19.7-44,44v92h88v-92C540,183.7,520.3,164,496,164z M48,500c-19.9,0-36-16.1-36-36v-41.6
		C12,354.9,66.9,300,134.4,300h14.1c23.9,10.6,49.3,16,75.5,16s51.6-5.4,75.5-16h11.3c-1.8,6.5-2.8,13.2-2.8,19.9V480
		c0,6.8,1,13.5,2.8,20H48z M224,244c-64,0-116-52-116-116S160,12,224,12s116,52,116,116S288,244,224,244z"/>
	<path d="M224,24c57.3,0,104,46.7,104,104s-46.7,104-104,104s-104-46.7-104-104S166.7,24,224,24 M440,208v80v24h24h64h24h24h32
		c4.4,0,8,3.6,8,8v160c0,4.4-3.6,8-8,8H384c-4.4,0-8-3.6-8-8V320c0-4.4,3.6-8,8-8h32h24v-24V208 M496,456c30.9,0,56-25.1,56-56
		s-25.1-56-56-56s-56,25.1-56,56S465.1,456,496,456 M146,312c24.7,10.6,51,16,78,16c24.9,0,49.2-4.6,72.2-13.6
		c-0.1,1.8-0.2,3.6-0.2,5.5l0,0.1v0.1v160v0.1l0,0.1c0,2.6,0.2,5.2,0.4,7.8H48c-13.2,0-24-10.8-24-24v-41.6
		c0-29.5,11.5-57.2,32.3-78.1c20.9-20.9,48.6-32.3,78.1-32.3H146 M224,0C153.3,0,96,57.3,96,128s57.3,128,128,128s128-57.3,128-128
		S294.7,0,224,0L224,0z M496,128c-44.2,0-80,35.8-80,80v80h-32c-17.7,0-32,14.3-32,32v160c0,17.7,14.3,32,32,32h224
		c17.7,0,32-14.3,32-32V320c0-17.7-14.3-32-32-32h-32v-80C576,163.8,540.2,128,496,128L496,128z M464,288v-80c0-17.7,14.3-32,32-32
		s32,14.3,32,32v80H464L464,288z M496,432c-17.7,0-32-14.3-32-32s14.3-32,32-32s32,14.3,32,32S513.7,432,496,432L496,432z
		 M313.6,288h-16.7c-23.1,10.7-48,16-72.9,16s-49.8-5.3-72.9-16h-16.7C60.2,288,0,348.2,0,422.4V464c0,26.5,21.5,48,48,48h280.9
		c-5.8-9.7-8.8-20.7-8.9-32V320c0.1-10.7,2.9-21.2,8.1-30.5C323.3,289,318.6,288,313.6,288L313.6,288z"/>
</g>
</svg>
