<?xml version="1.0" encoding="utf-8"?>
<!-- Generator: Adobe Illustrator 26.0.1, SVG Export Plug-In . SVG Version: 6.00 Build 0)  -->
<svg version="1.1" id="Layer_1" xmlns="http://www.w3.org/2000/svg" xmlns:xlink="http://www.w3.org/1999/xlink" x="0px" y="0px"
	 viewBox="0 0 1306 1121" style="enable-background:new 0 0 1306 1121;" xml:space="preserve">
<style type="text/css">
	.st0{fill:#FF931E;}
	.st1{fill:none;}
	.st2{fill:#3FA9F5;}
</style>
<g>
	<polygon class="st0" points="954,1080.1 953.5,1081 352.5,1081 52.5,561.4 52,560.5 352,40.9 487.6,275 322.5,561 311.5,580.1 
		476.9,866.6 488.2,886.2 841.6,886.2 841.7,886.2 	"/>
</g>
<line class="st1" x1="1306" y1="559.5" x2="1253.5" y2="559.6"/>
<line class="st1" x1="978.6" y1="-5.5" x2="952.5" y2="40"/>
<path class="st1" d="M653,560.5"/>
<polygon class="st2" points="1253.5,559.6 953.5,40 952.4,40 352.5,40 352,40.9 487.6,275 488.2,274 817.8,274 841.6,274 
	1006.8,560 1018.4,580.1 841.7,886.2 954,1080.1 1254,560.5 "/>
</svg>
