<?xml version="1.0" encoding="utf-8"?>
<!-- Generator: Adobe Illustrator 26.0.1, SVG Export Plug-In . SVG Version: 6.00 Build 0)  -->
<svg version="1.1" id="Layer_1" xmlns="http://www.w3.org/2000/svg" xmlns:xlink="http://www.w3.org/1999/xlink" x="0px" y="0px"
	 viewBox="0 0 1306 1121" style="enable-background:new 0 0 1306 1121;" xml:space="preserve">
<style type="text/css">
	.st0{fill:#FFCD32;}
	.st1{fill:#FF931E;}
	.st2{fill:#3FA9F5;}
</style>
<g>
	<polygon class="st0" points="954,1080.1 953.5,1081 353.6,1081 476.7,867 477.1,867.6 830.5,867.6 830.7,867.3 	"/>
</g>
<g>
	<polygon class="st1" points="476.7,867 353.6,1081 352.5,1081 52.5,561.4 52,560.5 352,40.9 476.7,256.1 300.6,561 300.3,561.5 	
		"/>
</g>
<polygon class="st2" points="1253.5,559.6 953.5,40 952.4,40 352.5,40 352,40.9 476.7,256.1 477.1,255.4 828.5,255.4 830.5,255.4 
	1006.4,560 1007.2,561.5 830.7,867.3 954,1080.1 1254,560.5 "/>
</svg>
